<svg xmlns="http://www.w3.org/2000/svg" width="19" height="19" viewBox="0 0 19 19">
  <symbol id="sw-logo">
    <path d="M16.7014 11.022L12.6949 1.84445L11.8213 1.23883L10.797 0.912729L9.41133 0.540039L7.78461 1.23883L6.70013 1.84445L10.797 11.022H16.7014Z" fill="url(#paint0_linear_102_283)"/>
    <path d="M2.32305 7.9535L6.32959 17.1525L7.2032 17.7595L8.22743 18.0864L9.61315 18.46L11.2399 17.7595L12.3243 17.1525L8.22743 7.9535H2.32305Z" fill="url(#paint1_linear_102_283)"/>
    <path d="M6.4859 1.9646L0.265933 10.9553L6.4859 11.022L10.9822 1.9646C11.2979 1.03802 12.2856 1.57853 12.74 1.9646C10.798 -1.59348 7.76144 0.482067 6.4859 1.9646Z" fill="white"/>
    <path d="M12.5141 17.0354L18.7341 8.04468L12.5141 7.97804L8.01783 17.0354C7.70213 17.962 6.71439 17.4215 6.25997 17.0354C8.20198 20.5935 11.2386 18.5179 12.5141 17.0354Z" fill="white"/>
    <defs>
    <linearGradient id="paint0_linear_102_283" x1="15.6653" y1="11.022" x2="10.9137" y2="2.13271" gradientUnits="userSpaceOnUse">
      <stop/>
      <stop offset="0.494792" stop-color="white"/>
      <stop offset="1" stop-color="white"/>
    </linearGradient>
    <linearGradient id="paint1_linear_102_283" x1="3.35922" y1="7.9535" x2="8.12811" y2="16.8543" gradientUnits="userSpaceOnUse">
      <stop stop-color="#0C0C0C"/>
      <stop offset="0.494792" stop-color="white"/>
      <stop offset="1" stop-color="white"/>
    </linearGradient>
    </defs>
  </symbol>

  <symbol id="icon-close" viewBox="0 0 24 24">
    <path d="M8 0.805714L7.19429 0L4 3.19429L0.805714 0L0 0.805714L3.19429 4L0 7.19429L0.805714 8L4 4.80571L7.19429 8L8 7.19429L4.80571 4L8 0.805714Z" />
  </symbol>

  <symbol id="heart" viewBox="0 0 24 24" >
    <path d="M20.8401 4.61012C20.3294 4.09912 19.7229 3.69376 19.0555 3.4172C18.388 3.14064 17.6726 2.99829 16.9501 2.99829C16.2276 2.99829 15.5122 3.14064 14.8448 3.4172C14.1773 3.69376 13.5709 4.09912 13.0601 4.61012L12.0001 5.67012L10.9401 4.61012C9.90843 3.57842 8.50915 2.99883 7.05012 2.99883C5.59109 2.99883 4.19181 3.57842 3.16012 4.61012C2.12843 5.64181 1.54883 7.04108 1.54883 8.50012C1.54883 9.95915 2.12843 11.3584 3.16012 12.3901L4.22012 13.4501L12.0001 21.2301L19.7801 13.4501L20.8401 12.3901C21.3511 11.8794 21.7565 11.2729 22.033 10.6055C22.3096 9.93801 22.4519 9.2226 22.4519 8.50012C22.4519 7.77763 22.3096 7.06222 22.033 6.39476C21.7565 5.7273 21.3511 5.12087 20.8401 4.61012V4.61012Z" />
  </symbol>

  <!-- mobile-menu -->
  <symbol id="mobile-menu-icon" viewBox="0 0 24 24">
    <path d="M2 5.995C2 5.445 2.446 5 2.995 5H11.005C11.2689 5 11.522 5.10483 11.7086 5.29143C11.8952 5.47803 12 5.73111 12 5.995C12 6.25889 11.8952 6.51197 11.7086 6.69857C11.522 6.88517 11.2689 6.99 11.005 6.99H2.995C2.73111 6.99 2.47803 6.88517 2.29143 6.69857C2.10483 6.51197 2 6.25889 2 5.995ZM2 12C2 11.45 2.446 11.005 2.995 11.005H21.005C21.2689 11.005 21.522 11.1098 21.7086 11.2964C21.8952 11.483 22 11.7361 22 12C22 12.2639 21.8952 12.517 21.7086 12.7036C21.522 12.8902 21.2689 12.995 21.005 12.995H2.995C2.73111 12.995 2.47803 12.8902 2.29143 12.7036C2.10483 12.517 2 12.2639 2 12ZM2.995 17.01C2.73111 17.01 2.47803 17.1148 2.29143 17.3014C2.10483 17.488 2 17.7411 2 18.005C2 18.2689 2.10483 18.522 2.29143 18.7086C2.47803 18.8952 2.73111 19 2.995 19H15.005C15.2689 19 15.522 18.8952 15.7086 18.7086C15.8952 18.522 16 18.2689 16 18.005C16 17.7411 15.8952 17.488 15.7086 17.3014C15.522 17.1148 15.2689 17.01 15.005 17.01H2.995Z"/>
  </symbol> 

  <!-- sale minus icon -->
  <symbol id="minus" width="16" height="2" viewBox="0 0 16 2" fill="none">
    <path d="M0 1H16" stroke="#141414"/>
  </symbol>

  <!-- footer logo icon -->
    <defs>
  <symbol id="icon-logo" viewBox="0 0 32 32">
    <path fill="#fff" style="fill: var(--color1, #fff)" d="M28.129 18.564l-6.748-15.457-1.471-1.020-1.725-0.549-2.334-0.628-2.74 1.177-1.826 1.020 6.9 15.457h9.944z"></path>
    <path fill="#fff" style="fill: var(--color1, #fff)" d="M3.913 13.395l6.748 15.493 1.471 1.022 1.725 0.551 2.334 0.629 2.74-1.18 1.826-1.022-6.9-15.493h-9.944z"></path>
    <path fill="#fff" style="fill: var(--color2, #fff)" d="M10.924 3.309l-10.476 15.142 10.476 0.112 7.573-15.255c0.532-1.561 2.195-0.65 2.961 0-3.271-5.993-8.385-2.497-10.533 0z"></path>
    <path fill="#fff" style="fill: var(--color2, #fff)" d="M21.076 28.691l10.476-15.142-10.476-0.112-7.573 15.255c-0.532 1.561-2.195 0.65-2.961 0 3.271 5.993 8.385 2.497 10.533 0z"></path>
  </symbol>

    <!-- fb -->
  <symbol id="icon-fb" viewBox="0 0 13 32">
    <path fill="#fff" style="fill: var(--color1, #fff)" d="M11.328 0.096h1.344v5.040h-1.68c-0.672 0-1.344 0-1.68 0.336s-0.336 0.672-0.336 1.456v1.792h3.696v4.256h-3.696v18.48h-5.712v-18.592h-3.024v-4.256h3.024v-1.456c0-2.464 0.336-4.256 1.008-5.040 1.008-1.456 3.024-2.128 6.048-2.128 0.336 0.112 0.672 0.112 1.008 0.112z"></path>
  </symbol>

    <!-- ig -->
  <symbol id="icon-ig" viewBox="0 0 32 32">
    <path fill="#fff" style="fill: var(--color1, #fff)" d="M28.718 10.757c-0.015-1.134-0.233-2.213-0.617-3.208l0.021 0.063c-0.682-1.722-2.021-3.059-3.7-3.722l-0.044-0.015c-0.921-0.356-1.985-0.573-3.097-0.596l-0.010-0c-1.367-0.061-1.801-0.078-5.271-0.078-3.472 0-3.917 0-5.274 0.078-1.063 0.023-2.113 0.223-3.106 0.597-1.723 0.678-3.062 2.015-3.727 3.693l-0.015 0.044c-0.357 0.919-0.574 1.981-0.595 3.091l-0 0.009c-0.062 1.367-0.080 1.8-0.080 5.265 0 3.466 0 3.909 0.080 5.265 0.021 1.063 0.222 2.11 0.594 3.104 0.682 1.721 2.022 3.058 3.701 3.721l0.044 0.015c0.917 0.37 1.979 0.601 3.091 0.638l0.016 0c1.369 0.061 1.802 0.080 5.274 0.080s3.917 0 5.274-0.080c1.122-0.023 2.187-0.239 3.172-0.616l-0.064 0.022c1.722-0.68 3.061-2.016 3.727-3.693l0.016-0.044c0.374-0.994 0.575-2.041 0.595-3.104 0.062-1.366 0.080-1.799 0.080-5.266-0.002-3.465-0.002-3.905-0.082-5.263zM15.989 22.531c-0.002 0-0.004 0-0.007 0-3.624 0-6.563-2.937-6.565-6.561v-0c0.003-3.624 2.941-6.561 6.566-6.561 0.002 0 0.004 0 0.006 0h-0c3.629 0 6.571 2.937 6.571 6.561-0.004 3.624-2.942 6.56-6.567 6.56-0.002 0-0.003 0-0.005 0h0zM22.823 10.696c-0.845 0-1.53-0.685-1.53-1.53s0.685-1.53 1.53-1.53v0c0.845 0 1.53 0.685 1.53 1.53s-0.685 1.53-1.53 1.53v0z"></path>
    <path fill="#fff" style="fill: var(--color1, #fff)" d="M15.992 19.976c2.211 0 4.004-1.793 4.004-4.004s-1.793-4.004-4.004-4.004v0c-2.211 0-4.004 1.793-4.004 4.004s1.793 4.004 4.004 4.004v0z"></path>
  </symbol>

    <!-- yt -->
  <symbol id="icon-yt" viewBox="0 0 46 32">
    <path fill="#fff" style="fill: var(--color1, #fff)" d="M35.929 0.444c-2.116-0.124-6.471-0.249-13.067-0.249h-0.871c-6.347 0-10.578 0.124-12.693 0.373-2.862 0.249-4.853 0.996-5.973 1.991-0.996 0.871-1.742 2.489-1.991 4.604-0.124 1.369-0.249 4.231-0.249 8.587v0.622c0 4.107 0.124 6.969 0.373 8.338 0.373 1.991 0.996 3.484 2.24 4.356 1.244 0.996 3.36 1.618 6.347 1.867 2.116 0.124 6.471 0.249 13.067 0.249h0.871c6.347 0 10.578-0.124 12.693-0.373 2.862-0.249 4.853-0.996 5.973-1.991 0.996-0.871 1.742-2.489 1.991-4.604 0.124-1.369 0.249-4.231 0.249-8.587v-0.622c0-4.107-0.124-6.969-0.373-8.338-0.373-1.991-0.996-3.484-2.24-4.356-1.244-0.996-3.36-1.618-6.347-1.867zM31.076 15.751l-13.689 8.213v-16.427l13.689 8.213z"></path>
    </symbol>
    </defs>
  </svg>





